<?xml version="1.0" encoding="UTF-8" standalone="no"?>
<svg
   xmlns:dc="http://purl.org/dc/elements/1.1/"
   xmlns:cc="http://creativecommons.org/ns#"
   xmlns:rdf="http://www.w3.org/1999/02/22-rdf-syntax-ns#"
   xmlns:svg="http://www.w3.org/2000/svg"
   xmlns="http://www.w3.org/2000/svg"
   id="svg8"
   version="1.1"
   viewBox="0 0 128.32201 128.32201"
   height="128.32201mm"
   width="128.32201mm">
  <defs
     id="defs2" />
  <metadata
     id="metadata5">
    <rdf:RDF>
      <cc:Work
         rdf:about="">
        <dc:format>image/svg+xml</dc:format>
        <dc:type
           rdf:resource="http://purl.org/dc/dcmitype/StillImage" />
        <dc:title></dc:title>
      </cc:Work>
    </rdf:RDF>
  </metadata>
  <g
     transform="translate(0,-168.678)"
     id="layer1"
     style="fill:#ffffff;fill-opacity:1">
    <g
       style="fill:#ffffff;fill-opacity:1"
       transform="rotate(45,133.70365,352.38187)"
       id="g4686">
      <path
         style="fill:#ffffff;fill-opacity:1;stroke:none;stroke-width:3.77952766;stroke-linejoin:round;stroke-miterlimit:4;stroke-dasharray:none;stroke-opacity:1"
         d="m 0,933.54297 a 188.97638,188.97638 0 0 0 -188.97656,188.97653 188.97638,188.97638 0 0 0 145.511716,183.6973 v 173.4687 A 43.464562,43.464566 0 0 0 0,1523.1504 43.464562,43.464566 0 0 0 43.464844,1479.6855 V 1306.1992 A 188.97638,188.97638 0 0 0 188.97656,1122.5195 188.97638,188.97638 0 0 0 0,933.54297 Z M 0,988.3457 A 134.17323,134.17323 0 0 1 134.17383,1122.5195 134.17323,134.17323 0 0 1 0,1256.6934 134.17323,134.17323 0 0 1 -134.17383,1122.5195 134.17323,134.17323 0 0 1 0,988.3457 Z"
         transform="scale(0.26458333)"
         id="path4575" />
      <path
         style="color:#000000;font-style:normal;font-variant:normal;font-weight:normal;font-stretch:normal;font-size:medium;line-height:normal;font-family:sans-serif;font-variant-ligatures:normal;font-variant-position:normal;font-variant-caps:normal;font-variant-numeric:normal;font-variant-alternates:normal;font-feature-settings:normal;text-indent:0;text-align:start;text-decoration:none;text-decoration-line:none;text-decoration-style:solid;text-decoration-color:#000000;letter-spacing:normal;word-spacing:normal;text-transform:none;writing-mode:lr-tb;direction:ltr;text-orientation:mixed;dominant-baseline:auto;baseline-shift:baseline;text-anchor:start;white-space:normal;shape-padding:0;clip-rule:nonzero;display:inline;overflow:visible;visibility:visible;opacity:1;isolation:auto;mix-blend-mode:normal;color-interpolation:sRGB;color-interpolation-filters:linearRGB;solid-color:#000000;solid-opacity:1;vector-effect:none;fill:#ffffff;fill-opacity:1;fill-rule:nonzero;stroke:none;stroke-width:11.5;stroke-linecap:round;stroke-linejoin:round;stroke-miterlimit:4;stroke-dasharray:none;stroke-dashoffset:0;stroke-opacity:1;color-rendering:auto;image-rendering:auto;shape-rendering:auto;text-rendering:auto;enable-background:accumulate"
         d="m 0,269.5 c -6.0306901,0 -11.664201,1.96486 -16.205078,5.28125 a 5.750575,5.750575 0 1 0 6.7812499,9.28711 C -6.7768097,282.13513 -3.5517351,281 0,281 c 3.5517344,0 6.776809,1.13513 9.4238281,3.06836 a 5.750575,5.750575 0 1 0 6.7812499,-9.28711 C 11.664201,271.46486 6.0306896,269.5 0,269.5 Z"
         id="path4639" />
    </g>
  </g>
</svg>
